<?xml version="1.0" encoding="UTF-8"?>
<svg id="objects" xmlns="http://www.w3.org/2000/svg" viewBox="0 0 100 100">
  <defs>
    <style>
      .cls-1 {
        fill: #fff;
      }
    </style>
  </defs>
  <g>
    <path class="cls-1" d="m61.93,30.82h-23.11c-4.56,0-8.25,3.7-8.25,8.25v23.11c0,4.56,3.7,8.25,8.25,8.25h23.11c4.56,0,8.25-3.7,8.25-8.25v-23.11c0-4.56-3.7-8.25-8.25-8.25Zm-11.53,32.19c-6.83,0-12.38-5.55-12.38-12.38s5.55-12.38,12.38-12.38,12.38,5.55,12.38,12.38-5.55,12.38-12.38,12.38Zm13.2-23.11c-1.37,0-2.48-1.11-2.48-2.48s1.11-2.48,2.48-2.48,2.48,1.11,2.48,2.48-1.11,2.48-2.48,2.48Z"/>
    <path class="cls-1" d="m50.37,5h0C25.17,5,4.74,25.43,4.74,50.63h0c0,25.2,20.43,45.63,45.63,45.63h0c25.2,0,45.63-20.43,45.63-45.63h0c0-25.2-20.43-45.63-45.63-45.63Zm23.93,58.01c0,6.38-5.17,11.55-11.55,11.55h-24.76c-6.38,0-11.55-5.17-11.55-11.55v-24.76c0-6.38,5.17-11.55,11.55-11.55h24.76c6.38,0,11.55,5.17,11.55,11.55v24.76Z"/>
  </g>
  <circle class="cls-1" cx="50.39" cy="50.63" r="8.25"/>
</svg>