<?xml version="1.0" encoding="UTF-8"?>
<svg id="objects" xmlns="http://www.w3.org/2000/svg" viewBox="0 0 100 100">
  <defs>
    <style>
      .cls-1 {
        fill: #fff;
      }
    </style>
  </defs>
  <path class="cls-1" d="m56.16,48.52l-10.81-5.4c-1.25-.62-2.71.28-2.71,1.68v10.8c0,1.39,1.47,2.3,2.71,1.68l10.81-5.4c1.38-.69,1.38-2.66,0-3.35Z"/>
  <path class="cls-1" d="m49.91,5.11h0C25.02,5.11,4.83,25.29,4.83,50.19h0c0,24.9,20.19,45.09,45.09,45.09h0c24.9,0,45.09-20.19,45.09-45.09h0c0-24.9-20.19-45.09-45.09-45.09Zm26.38,57.24c0,3.84-3.11,6.95-6.95,6.95H30.49c-3.84,0-6.95-3.11-6.95-6.95v-24.3c0-3.84,3.11-6.95,6.95-6.95h38.86c3.84,0,6.95,3.11,6.95,6.95v24.3Z"/>
</svg>