<?xml version="1.0" encoding="UTF-8"?>
<svg id="objects" xmlns="http://www.w3.org/2000/svg" viewBox="0 0 100 100">
  <defs>
    <style>
      .cls-1 {
        fill: #fff;
      }
    </style>
  </defs>
  <path class="cls-1" d="m49.99,6h0C25.23,6,5.17,26.07,5.17,50.82h0c0,24.75,20.07,44.82,44.82,44.82h0c24.75,0,44.82-20.07,44.82-44.82h0c0-24.75-20.07-44.82-44.82-44.82Zm13.28,41.34l-.75,6c-.13,1-.97,1.76-1.98,1.76h-9.71v25.07c-1.03.09-2.06.14-3.11.14-2.35,0-4.64-.23-6.85-.68v-24.53h-7.47c-.69,0-1.25-.56-1.25-1.25v-7.5c0-.69.56-1.25,1.25-1.25h7.47v-11.25c0-6.91,5.57-12.5,12.45-12.5h8.71c.69,0,1.25.56,1.25,1.25v7.5c0,.69-.56,1.25-1.25,1.25h-6.23c-2.75,0-4.98,2.24-4.98,5v8.75h10.46c1.2,0,2.13,1.06,1.98,2.25Z"/>
</svg>