<?xml version="1.0" encoding="UTF-8"?>
<svg id="objects" xmlns="http://www.w3.org/2000/svg" viewBox="0 0 100 100">
  <defs>
    <style>
      .cls-1 {
        fill: #fff;
      }
    </style>
  </defs>
  <path class="cls-1" d="m49.37,5h0C24.17,5,3.74,25.43,3.74,50.63h0c0,25.2,20.43,45.63,45.63,45.63h0c25.2,0,45.63-20.43,45.63-45.63h0c0-25.2-20.43-45.63-45.63-45.63Zm-11.26,66.29c0,.24-.2.44-.44.44h-8.92c-.24,0-.44-.2-.44-.44v-28.51c0-.24.2-.44.44-.44h8.92c.24,0,.44.2.44.44v28.51Zm-4.9-32.86c-3.25,0-5.88-2.63-5.88-5.88s2.63-5.88,5.88-5.88,5.88,2.63,5.88,5.88-2.63,5.88-5.88,5.88Zm38.2,31.34c0,1.08-.88,1.96-1.96,1.96h-5.88c-1.08,0-1.96-.88-1.96-1.96v-13.71c0-2.7-2.19-4.9-4.9-4.9s-4.9,2.19-4.9,4.9v13.71c0,1.08-.88,1.96-1.96,1.96h-5.88c-1.08,0-1.96-.88-1.96-1.96v-25.47c0-1.08.88-1.96,1.96-1.96h5.88c1.08,0,1.96.88,1.96,1.96v1.25c1.96-2.54,5.2-4.19,8.82-4.19,5.41,0,10.77,3.92,10.77,11.75v16.65Z"/>
</svg>